<svg width="120" height="120" viewBox="0 0 120 120" fill="none" xmlns="http://www.w3.org/2000/svg">
  <!-- White background circle for contrast -->
  <circle cx="60" cy="60" r="60" fill="white"/>

  <!-- Outer circle -->
  <circle cx="60" cy="60" r="57" stroke="#002244" stroke-width="2.5" fill="none"/>
  <!-- Inner circle -->
  <circle cx="60" cy="60" r="51" stroke="#002244" stroke-width="1.2" fill="none"/>

  <!-- Left house -->
  <polygon points="18,58 34,30 50,58" fill="#002244"/>
  <polygon points="21,58 34,33 47,58" fill="white"/>
  <polygon points="24,58 34,37 44,58" fill="#002244"/>
  <rect x="27" y="50" width="5" height="5" fill="white"/>

  <!-- Centre house (tallest) -->
  <polygon points="35,58 60,18 85,58" fill="#002244"/>
  <polygon points="39,58 60,22 81,58" fill="white"/>
  <polygon points="43,58 60,26 77,58" fill="#002244"/>
  <rect x="53" y="43" width="8" height="8" fill="white"/>
  <line x1="57" y1="43" x2="57" y2="51" stroke="#002244" stroke-width="1"/>
  <line x1="53" y1="47" x2="61" y2="47" stroke="#002244" stroke-width="1"/>

  <!-- Right house -->
  <polygon points="70,58 86,30 102,58" fill="#002244"/>
  <polygon points="73,58 86,33 99,58" fill="white"/>
  <polygon points="76,58 86,37 96,58" fill="#002244"/>
  <rect x="88" y="50" width="5" height="5" fill="white"/>

  <!-- Rebar lines -->
  <line x1="10" y1="62" x2="110" y2="62" stroke="#002244" stroke-width="3" stroke-linecap="round"/>
  <line x1="12" y1="59" x2="10" y2="65" stroke="#002244" stroke-width="1"/>
  <line x1="17" y1="59" x2="15" y2="65" stroke="#002244" stroke-width="1"/>
  <line x1="22" y1="59" x2="20" y2="65" stroke="#002244" stroke-width="1"/>
  <line x1="27" y1="59" x2="25" y2="65" stroke="#002244" stroke-width="1"/>
  <line x1="32" y1="59" x2="30" y2="65" stroke="#002244" stroke-width="1"/>
  <line x1="37" y1="59" x2="35" y2="65" stroke="#002244" stroke-width="1"/>
  <line x1="42" y1="59" x2="40" y2="65" stroke="#002244" stroke-width="1"/>
  <line x1="47" y1="59" x2="45" y2="65" stroke="#002244" stroke-width="1"/>
  <line x1="52" y1="59" x2="50" y2="65" stroke="#002244" stroke-width="1"/>
  <line x1="57" y1="59" x2="55" y2="65" stroke="#002244" stroke-width="1"/>
  <line x1="62" y1="59" x2="60" y2="65" stroke="#002244" stroke-width="1"/>
  <line x1="67" y1="59" x2="65" y2="65" stroke="#002244" stroke-width="1"/>
  <line x1="72" y1="59" x2="70" y2="65" stroke="#002244" stroke-width="1"/>
  <line x1="77" y1="59" x2="75" y2="65" stroke="#002244" stroke-width="1"/>
  <line x1="82" y1="59" x2="80" y2="65" stroke="#002244" stroke-width="1"/>
  <line x1="87" y1="59" x2="85" y2="65" stroke="#002244" stroke-width="1"/>
  <line x1="92" y1="59" x2="90" y2="65" stroke="#002244" stroke-width="1"/>
  <line x1="97" y1="59" x2="95" y2="65" stroke="#002244" stroke-width="1"/>
  <line x1="102" y1="59" x2="100" y2="65" stroke="#002244" stroke-width="1"/>
  <line x1="107" y1="59" x2="105" y2="65" stroke="#002244" stroke-width="1"/>
  <line x1="10" y1="67" x2="110" y2="67" stroke="#002244" stroke-width="3" stroke-linecap="round"/>
  <line x1="12" y1="64" x2="10" y2="70" stroke="#002244" stroke-width="1"/>
  <line x1="17" y1="64" x2="15" y2="70" stroke="#002244" stroke-width="1"/>
  <line x1="22" y1="64" x2="20" y2="70" stroke="#002244" stroke-width="1"/>
  <line x1="27" y1="64" x2="25" y2="70" stroke="#002244" stroke-width="1"/>
  <line x1="32" y1="64" x2="30" y2="70" stroke="#002244" stroke-width="1"/>
  <line x1="37" y1="64" x2="35" y2="70" stroke="#002244" stroke-width="1"/>
  <line x1="42" y1="64" x2="40" y2="70" stroke="#002244" stroke-width="1"/>
  <line x1="47" y1="64" x2="45" y2="70" stroke="#002244" stroke-width="1"/>
  <line x1="52" y1="64" x2="50" y2="70" stroke="#002244" stroke-width="1"/>
  <line x1="57" y1="64" x2="55" y2="70" stroke="#002244" stroke-width="1"/>
  <line x1="62" y1="64" x2="60" y2="70" stroke="#002244" stroke-width="1"/>
  <line x1="67" y1="64" x2="65" y2="70" stroke="#002244" stroke-width="1"/>
  <line x1="72" y1="64" x2="70" y2="70" stroke="#002244" stroke-width="1"/>
  <line x1="77" y1="64" x2="75" y2="70" stroke="#002244" stroke-width="1"/>
  <line x1="82" y1="64" x2="80" y2="70" stroke="#002244" stroke-width="1"/>
  <line x1="87" y1="64" x2="85" y2="70" stroke="#002244" stroke-width="1"/>
  <line x1="92" y1="64" x2="90" y2="70" stroke="#002244" stroke-width="1"/>
  <line x1="97" y1="64" x2="95" y2="70" stroke="#002244" stroke-width="1"/>
  <line x1="102" y1="64" x2="100" y2="70" stroke="#002244" stroke-width="1"/>
  <line x1="107" y1="64" x2="105" y2="70" stroke="#002244" stroke-width="1"/>

  <!-- RCC text -->
  <text x="60" y="88" text-anchor="middle" font-family="Georgia, 'Times New Roman', serif" font-weight="700" font-size="20" fill="#002244" letter-spacing="3">RCC</text>

  <!-- Subtext -->
  <text x="60" y="101" text-anchor="middle" font-family="Arial, sans-serif" font-weight="400" font-size="5.5" fill="#002244" letter-spacing="0.5">Renukai Consultants &amp; Constructions</text>
</svg>
